<?xml version="1.0" encoding="UTF-8"?>
<!DOCTYPE svg PUBLIC "-//W3C//DTD SVG 1.1//EN" "http://www.w3.org/Graphics/SVG/1.1/DTD/svg11.dtd">
<svg xmlns="http://www.w3.org/2000/svg" version="1.1" width="512px" height="512px" style="shape-rendering:geometricPrecision; text-rendering:geometricPrecision; image-rendering:optimizeQuality; fill-rule:evenodd; clip-rule:evenodd" xmlns:xlink="http://www.w3.org/1999/xlink">
<g><path style="opacity:1" fill="#000000" d="M 27.5,7.5 C 43.3463,5.50906 51.8463,12.5091 53,28.5C 54.2478,35.2146 53.2478,41.5479 50,47.5C 45.3713,53.1348 39.8713,57.6348 33.5,61C 22.9001,64.0035 14.4001,61.1702 8,52.5C 1.95059,41.8484 2.61726,31.515 10,21.5C 14.9201,15.3836 20.7534,10.7169 27.5,7.5 Z"/></g>
<g><path style="opacity:1" fill="#020000" d="M 65.5,42.5 C 84.061,43.8156 102.394,46.649 120.5,51C 144.167,59.3333 167.833,67.6667 191.5,76C 206.864,83.3494 222.198,90.6828 237.5,98C 254.591,110.423 269.757,124.923 283,141.5C 302.528,171.395 320.195,202.395 336,234.5C 336.667,237.833 336.667,241.167 336,244.5C 331.798,252.204 326.631,259.204 320.5,265.5C 323.333,265.833 326.167,266.167 329,266.5C 350.504,265.614 372.004,265.114 393.5,265C 401.017,267.222 402.85,271.722 399,278.5C 382.118,291.043 366.118,304.709 351,319.5C 343.593,328.645 336.926,338.311 331,348.5C 328.594,360.384 324.594,371.717 319,382.5C 315.333,389.167 311.667,395.833 308,402.5C 304.841,406.659 301.341,410.492 297.5,414C 293.07,416.27 288.403,416.937 283.5,416C 274.397,403.232 264.231,391.399 253,380.5C 250.054,367.248 251.22,354.248 256.5,341.5C 252.878,340.675 249.211,340.175 245.5,340C 243.152,339.654 241.319,338.487 240,336.5C 230.349,302.871 218.349,270.205 204,238.5C 188.744,216.333 174.744,193.333 162,169.5C 154.215,158.714 146.049,148.214 137.5,138C 121.667,126.167 107.833,112.333 96,96.5C 85.6034,85.434 74.6034,75.1007 63,65.5C 59.1906,60.0669 57.8573,54.0669 59,47.5C 61.3256,45.9343 63.4922,44.2676 65.5,42.5 Z"/></g>
<g><path style="opacity:1" fill="#691218" d="M 164.5,107.5 C 144.403,92.6038 123.069,79.4371 100.5,68C 98.1526,67.5639 95.8193,67.0639 93.5,66.5C 92.5836,66.5427 91.9169,66.8761 91.5,67.5C 89.8546,66.5213 88.5213,65.188 87.5,63.5C 88.5,63.1667 89.5,62.8333 90.5,62.5C 99.099,64.6497 107.766,66.483 116.5,68C 134.307,74.6175 152.307,80.6175 170.5,86C 180.741,90.1199 190.741,94.7866 200.5,100C 192.136,100.315 183.803,100.982 175.5,102C 171.528,103.319 167.861,105.153 164.5,107.5 Z"/></g>
<g><path style="opacity:1" fill="#ce303c" d="M 91.5,67.5 C 91.9169,66.8761 92.5836,66.5427 93.5,66.5C 95.8193,67.0639 98.1526,67.5639 100.5,68C 123.069,79.4371 144.403,92.6038 164.5,107.5C 161.519,110.469 159.852,114.136 159.5,118.5C 160.877,126.535 162.044,134.535 163,142.5C 153.639,129.139 142.306,117.806 129,108.5C 117.315,93.9863 104.815,80.3196 91.5,67.5 Z"/></g>
<g><path style="opacity:1" fill="#691118" d="M 245.5,195.5 C 231.832,177.66 218.332,159.66 205,141.5C 196.664,133.933 188.497,126.266 180.5,118.5C 194.409,118.431 208.075,116.598 221.5,113C 223.833,112.333 226.167,112.333 228.5,113C 249.509,128.672 267.009,147.505 281,169.5C 288.598,182.031 295.598,194.698 302,207.5C 288.605,200.479 274.438,195.646 259.5,193C 254.408,191.913 249.741,192.746 245.5,195.5 Z"/></g>
<g><path style="opacity:1" fill="#d2313d" d="M 180.5,118.5 C 188.497,126.266 196.664,133.933 205,141.5C 218.332,159.66 231.832,177.66 245.5,195.5C 242.364,202.443 239.198,209.443 236,216.5C 233.66,226.519 230.327,236.186 226,245.5C 223.606,239.713 220.94,234.046 218,228.5C 206.167,210.837 194.833,192.837 184,174.5C 182.914,165.87 182.247,157.203 182,148.5C 179.739,138.601 178.239,128.601 177.5,118.5C 178.5,118.5 179.5,118.5 180.5,118.5 Z"/></g>
<g><path style="opacity:1" fill="#691118" d="M 278.5,382.5 C 279.496,382.414 280.329,382.748 281,383.5C 283.843,375.421 285.343,367.088 285.5,358.5C 287.355,310.988 279.189,265.321 261,221.5C 259.643,218.102 257.81,215.102 255.5,212.5C 256.134,211.053 257.301,210.387 259,210.5C 263.2,211.172 267.367,212.006 271.5,213C 285.459,219.096 299.625,224.596 314,229.5C 315.226,232.952 316.726,236.285 318.5,239.5C 311.235,249.601 303.402,259.268 295,268.5C 291.063,274.475 291.896,279.642 297.5,284C 319.833,283.98 342.166,283.98 364.5,284C 342.013,300.489 324.846,321.322 313,346.5C 309.128,364.911 301.461,381.578 290,396.5C 286.68,391.353 282.847,386.686 278.5,382.5 Z"/></g>
<g><path style="opacity:1" fill="#d1313d" d="M 255.5,212.5 C 257.81,215.102 259.643,218.102 261,221.5C 279.189,265.321 287.355,310.988 285.5,358.5C 285.343,367.088 283.843,375.421 281,383.5C 280.329,382.748 279.496,382.414 278.5,382.5C 275.243,378.344 271.743,374.344 268,370.5C 267.833,369.333 267.667,368.167 267.5,367C 269.117,358.366 271.283,349.866 274,341.5C 276.181,325.854 269.347,319.521 253.5,322.5C 248.041,304.789 242.374,287.122 236.5,269.5C 243.03,250.578 249.363,231.578 255.5,212.5 Z"/></g>
<g><path style="opacity:1" fill="#000000" d="M 405.5,301.5 C 426.399,300.246 446.066,304.412 464.5,314C 472.696,320.199 479.529,327.699 485,336.5C 489.761,343.61 490.594,351.11 487.5,359C 482.541,364.044 476.541,365.711 469.5,364C 462.688,359.576 458.021,353.909 455.5,347C 451.029,342.215 445.696,338.549 439.5,336C 431.174,334.751 422.841,333.584 414.5,332.5C 397.422,337.884 386.422,349.217 381.5,366.5C 382.668,370.995 385.001,374.828 388.5,378C 401.581,381.415 414.581,385.082 427.5,389C 444.543,398.097 457.376,411.263 466,428.5C 469.833,442.332 470.5,456.332 468,470.5C 464.41,479.744 458.91,487.577 451.5,494C 432.218,503.256 411.885,507.256 390.5,506C 368.384,500.866 350.884,489.033 338,470.5C 334.249,457.77 338.749,449.77 351.5,446.5C 358.779,446.714 363.946,450.047 367,456.5C 377.582,468.11 390.748,474.276 406.5,475C 416.175,473.278 425.508,470.611 434.5,467C 436.041,465.421 437.208,463.587 438,461.5C 438.774,454.776 438.441,448.11 437,441.5C 432.318,432.413 425.818,424.913 417.5,419C 405.846,415.739 394.179,412.739 382.5,410C 378.535,408.007 374.535,406.007 370.5,404C 365.667,399.167 360.833,394.333 356,389.5C 349.461,378.949 347.794,367.616 351,355.5C 354.471,347.427 358.137,339.427 362,331.5C 369.197,323.969 376.697,316.802 384.5,310C 389.05,308.041 393.383,305.708 397.5,303C 400.365,302.817 403.031,302.317 405.5,301.5 Z"/></g>
<g><path style="opacity:1" fill="#000000" d="M 26.5,318.5 C 33.3436,317.832 38.8436,320.165 43,325.5C 54.1911,353.899 64.8577,382.565 75,411.5C 78.3333,418.167 81.6667,424.833 85,431.5C 89.5923,419.972 93.9257,408.306 98,396.5C 99.3333,394.5 100.667,392.5 102,390.5C 107.331,373.174 112.664,355.841 118,338.5C 125.39,330.409 133.557,329.576 142.5,336C 145.436,339.665 147.27,343.832 148,348.5C 153.144,372.741 157.81,397.074 162,421.5C 163.873,429.198 165.873,436.864 168,444.5C 170.01,432.108 172.343,419.775 175,407.5C 183.574,382.626 188.574,356.959 190,330.5C 193.907,322.189 200.407,319.023 209.5,321C 217.192,324.031 220.859,329.698 220.5,338C 218.235,366.213 212.735,393.713 204,420.5C 200.869,435.417 198.202,450.417 196,465.5C 194.26,476.69 189.76,486.524 182.5,495C 175.567,499.612 168.567,499.612 161.5,495C 157.473,487.633 152.64,480.8 147,474.5C 143.089,466.44 139.755,458.106 137,449.5C 133.326,436.278 130.16,422.944 127.5,409.5C 117.724,430.184 110.891,451.85 107,474.5C 102.618,486.774 94.1184,491.274 81.5,488C 79.7585,486.38 77.9252,484.88 76,483.5C 65.8614,462.761 55.5281,442.094 45,421.5C 36.4736,395.107 26.8069,369.107 16,343.5C 11.6062,331.508 15.1062,323.175 26.5,318.5 Z"/></g>
</svg>
